<?xml version="1.0" encoding="UTF-8" standalone="no"?>
<!-- Created with Inkscape (http://www.inkscape.org/) -->

<svg
   width="105.83333mm"
   height="105.83332mm"
   viewBox="0 0 105.83333 105.83332"
   version="1.1"
   id="svg5"
   xml:space="preserve"
   inkscape:version="1.2.2 (732a01da63, 2022-12-09, custom)"
   sodipodi:docname="laajal sa diine logo.svg"
   inkscape:export-filename="../46726f84/logo512.png"
   inkscape:export-xdpi="122.88"
   inkscape:export-ydpi="122.88"
   xmlns:inkscape="http://www.inkscape.org/namespaces/inkscape"
   xmlns:sodipodi="http://sodipodi.sourceforge.net/DTD/sodipodi-0.dtd"
   xmlns="http://www.w3.org/2000/svg"
   xmlns:svg="http://www.w3.org/2000/svg"><sodipodi:namedview
     id="namedview7"
     pagecolor="#ffffff"
     bordercolor="#111111"
     borderopacity="1"
     inkscape:showpageshadow="0"
     inkscape:pageopacity="0"
     inkscape:pagecheckerboard="1"
     inkscape:deskcolor="#d1d1d1"
     inkscape:document-units="mm"
     showgrid="false"
     inkscape:zoom="0.99276683"
     inkscape:cx="55.400723"
     inkscape:cy="230.66846"
     inkscape:window-width="1920"
     inkscape:window-height="969"
     inkscape:window-x="0"
     inkscape:window-y="0"
     inkscape:window-maximized="1"
     inkscape:current-layer="g378"
     showguides="false" /><defs
     id="defs2" /><g
     inkscape:label="Layer 1"
     inkscape:groupmode="layer"
     id="layer1"><g
       id="g11654"
       transform="scale(0.78125001)"><circle
         style="fill:#0a4f51;fill-opacity:1;stroke:#000000;stroke-width:0.0109001;stroke-dasharray:none;stroke-opacity:1"
         id="path11634"
         cx="68.619911"
         cy="78.724815"
         r="66.25367"
         transform="matrix(1.0222492,0,0,1.0222492,-2.413318,-12.743045)" /><g
         id="g10521"
         transform="matrix(1.0222492,0,0,1.0222492,-2.413318,-12.743045)"><g
           id="g9600"
           transform="matrix(6.8709687,0,0,6.8709687,-435.64766,-868.71944)"><g
             id="g462"
             inkscape:label="draw_texts"
             transform="translate(-0.89518046,-0.5786007)"><g
               id="g378"
               style="fill:#cbb26a;fill-opacity:1"
               transform="translate(0.32580807,0.015827)"><text
                 xml:space="preserve"
                 style="font-style:normal;font-variant:normal;font-weight:normal;font-stretch:normal;font-size:1.54294px;font-family:Suruma;-inkscape-font-specification:Suruma;fill:#be9e44;fill-opacity:1;stroke-width:0.0132292;stroke-dasharray:none"
                 x="68.491196"
                 y="140.88388"
                 id="text167"><tspan
                   sodipodi:role="line"
                   id="tspan165"
                   style="font-style:normal;font-variant:normal;font-weight:normal;font-stretch:normal;font-size:1.54294px;font-family:Chilanka;-inkscape-font-specification:'Chilanka, Normal';font-variant-ligatures:normal;font-variant-caps:normal;font-variant-numeric:normal;font-variant-east-asian:normal;fill:#be9e44;fill-opacity:1;stroke:#000000;stroke-width:0.0132292;stroke-dasharray:none;stroke-opacity:1"
                   x="68.491196"
                   y="140.88388">leral sa xamxam</tspan></text><text
                 xml:space="preserve"
                 style="font-size:2.78684px;fill:#ffffff;fill-opacity:1;stroke-width:0.0116119;stroke-dasharray:none"
                 x="65.295471"
                 y="138.3317"
                 id="text113"><tspan
                   sodipodi:role="line"
                   id="tspan111"
                   style="font-style:normal;font-variant:normal;font-weight:normal;font-stretch:normal;font-family:Suruma;-inkscape-font-specification:Suruma;fill:#ffffff;fill-opacity:1;stroke:#000000;stroke-width:0.0116119;stroke-dasharray:none;stroke-opacity:1"
                   x="65.295471"
                   y="138.3317">Laajal Sa Diiné</tspan></text><text
                 xml:space="preserve"
                 style="font-style:normal;font-variant:normal;font-weight:normal;font-stretch:normal;font-size:1.02862px;font-family:KacstBook;-inkscape-font-specification:'KacstBook, Normal';font-variant-ligatures:normal;font-variant-caps:normal;font-variant-numeric:normal;font-variant-east-asian:normal;fill:#be9e44;fill-opacity:1;stroke-width:0.0132292;stroke-dasharray:none"
                 x="67.816147"
                 y="143.16226"
                 id="text331"><tspan
                   sodipodi:role="line"
                   id="tspan329"
                   style="font-style:normal;font-variant:normal;font-weight:normal;font-stretch:normal;font-size:1.02862px;font-family:'Liberation Serif';-inkscape-font-specification:'Liberation Serif, Normal';font-variant-ligatures:normal;font-variant-caps:normal;font-variant-numeric:normal;font-variant-east-asian:normal;fill:#be9e44;fill-opacity:1;stroke:#000000;stroke-width:0.0132292;stroke-dasharray:none;stroke-opacity:1"
                   x="67.816147"
                   y="143.16226">فَاسْأَلُواْ أَهْلَ الذِّكْرِ إِن كُنتُمْ لاَ تَعْلَمُونَ</tspan></text><text
                 xml:space="preserve"
                 style="font-style:normal;font-variant:normal;font-weight:normal;font-stretch:normal;font-size:0.771468px;font-family:Karumbi;-inkscape-font-specification:Karumbi;fill:#ffffff;stroke:#000000;stroke-width:0.00241084"
                 x="84.165169"
                 y="132.4613"
                 id="text514"
                 inkscape:label="text514"><tspan
                   sodipodi:role="line"
                   id="tspan512"
                   style="stroke-width:0.00241084"
                   x="84.165169"
                   y="132.4613" /></text></g></g><g
             style="fill:#dbc690;fill-opacity:0.0969149;stroke:#000000;stroke-width:1.04772;stroke-dasharray:none;stroke-opacity:1"
             id="g6130"
             transform="matrix(0.01262663,0,0,0.01262663,70.25242,129.30355)"><g
               id="SVGRepo_bgCarrier"
               stroke-width="0"
               style="fill:#dbc690;fill-opacity:0.0969149;stroke:#000000;stroke-width:1.04772;stroke-dasharray:none;stroke-opacity:1" /><g
               id="SVGRepo_tracerCarrier"
               stroke-linecap="round"
               stroke-linejoin="round"
               stroke="#cccccc"
               stroke-width="0.968456"
               style="fill:#dbc690;fill-opacity:0.0969149;stroke:#000000;stroke-width:1.04772;stroke-dasharray:none;stroke-opacity:1" /><g
               id="SVGRepo_iconCarrier"
               style="fill:#cbb26a;fill-opacity:1;stroke:#000000;stroke-width:1.04772;stroke-dasharray:none;stroke-opacity:1"> <g
   id="g6116"
   style="fill:#cbb26a;fill-opacity:1;stroke:#000000;stroke-width:1.04772;stroke-dasharray:none;stroke-opacity:1"> <path
   d="M 484.06,210.989 438.305,52.856 c -0.328,-1.133 -1.112,-2.079 -2.164,-2.611 -1.054,-0.533 -2.278,-0.605 -3.385,-0.197 l -12.411,4.561 -1.982,-6.582 c -0.339,-1.127 -1.131,-2.063 -2.186,-2.584 -1.055,-0.522 -2.279,-0.583 -3.381,-0.168 -29.582,11.134 -44.034,14.763 -107.786,22.14 -40.168,4.647 -56.44,21.963 -62.954,33.842 C 235.587,89.373 219.378,72.062 179.217,67.415 115.464,60.038 101.012,56.409 71.43,45.275 70.329,44.86 69.104,44.921 68.049,45.443 66.994,45.964 66.202,46.9 65.863,48.027 l -1.976,6.562 -12.423,-4.543 c -1.105,-0.403 -2.332,-0.331 -3.382,0.201 -1.051,0.533 -1.833,1.478 -2.161,2.609 L 0.168,210.989 c -0.638,2.207 0.593,4.521 2.779,5.226 l 141.114,45.496 -59.117,47.54 c -1.004,0.807 -1.587,2.025 -1.587,3.312 v 32.49 c 0,1.709 1.023,3.252 2.599,3.916 1.574,0.664 3.394,0.32 4.617,-0.872 l 26.274,-25.606 c 4.096,-3.976 10.665,-3.88 14.64,0.216 l 5.087,5.24 c 1.926,1.983 2.964,4.599 2.923,7.364 -0.041,2.765 -1.156,5.348 -3.15,7.284 l -51.71,50.528 c -0.818,0.799 -1.279,1.896 -1.279,3.04 v 38.814 c 0,1.698 1.011,3.233 2.569,3.904 0.542,0.233 1.113,0.346 1.68,0.346 1.066,0 2.117,-0.401 2.922,-1.163 l 151.508,-143.381 151.74,143.383 c 0.805,0.761 1.855,1.161 2.92,1.161 0.567,0 1.14,-0.114 1.681,-0.347 1.559,-0.671 2.568,-2.206 2.568,-3.903 v -38.814 c 0,-1.144 -0.461,-2.24 -1.279,-3.04 l -51.722,-50.538 c -1.983,-1.926 -3.099,-4.509 -3.14,-7.274 -0.041,-2.765 0.997,-5.38 2.923,-7.364 l 5.087,-5.24 c 3.976,-4.096 10.542,-4.193 14.634,-0.223 l 26.281,25.613 c 1.224,1.192 3.045,1.536 4.617,0.872 1.575,-0.664 2.599,-2.207 2.599,-3.916 v -32.49 c 0,-1.286 -0.582,-2.503 -1.583,-3.309 l -59.081,-47.609 140.999,-45.429 c 2.186,-0.706 3.416,-3.02 2.779,-5.227 z M 389.745,110.873 h 38.663 l 2.408,8 h -6.571 c -2.348,0 -4.25,1.903 -4.25,4.25 0,2.347 1.902,4.25 4.25,4.25 h 9.131 l 12.796,42.5 h -42.927 c -2.348,0 -4.25,1.903 -4.25,4.25 0,2.347 1.902,4.25 4.25,4.25 h 45.485 l 4.066,13.506 c -21.982,7.912 -73.793,23.604 -147.522,27.514 -32.093,1.702 -48.683,13.718 -56.95,23.5 -0.729,0.862 -1.407,1.723 -2.04,2.577 v -85.096 h 63.461 c 2.348,0 4.25,-1.903 4.25,-4.25 0,-2.347 -1.902,-4.25 -4.25,-4.25 h -63.461 v -15.438 c 0.561,-3.152 7.102,-31.816 59.703,-37.902 61.527,-7.119 83.698,-13.038 111.668,-23.373 l 8.193,27.212 h -36.104 c -2.348,0 -4.25,1.903 -4.25,4.25 10e-4,2.347 1.904,4.25 4.251,4.25 z m -356.505,75 h 26.505 c 2.348,0 4.25,-1.903 4.25,-4.25 0,-2.347 -1.902,-4.25 -4.25,-4.25 H 35.799 l 7.376,-24.5 h 62.07 c 2.348,0 4.25,-1.903 4.25,-4.25 0,-2.347 -1.902,-4.25 -4.25,-4.25 h -59.51 l 4.968,-16.5 h 23.043 c 2.348,0 4.25,-1.903 4.25,-4.25 0,-2.347 -1.902,-4.25 -4.25,-4.25 H 53.261 L 66.753,74.56 c 29.514,10.936 51.988,17.089 111.488,23.974 52.74,6.103 59.033,34.906 59.543,37.888 v 48.952 h -15.039 c -2.348,0 -4.25,1.903 -4.25,4.25 0,2.347 1.902,4.25 4.25,4.25 h 15.039 v 5.5 h -34.039 c -2.348,0 -4.25,1.903 -4.25,4.25 0,2.347 1.902,4.25 4.25,4.25 h 34.039 v 37.507 c -0.609,-0.823 -1.256,-1.65 -1.954,-2.48 -8.23,-9.784 -24.779,-21.805 -56.876,-23.507 C 105.223,215.484 53.413,199.792 31.432,191.88 Z M 305.987,75.857 C 367.581,68.73 383.901,65.021 411.531,54.818 l 3.669,12.187 c -28.124,10.427 -48.897,15.992 -110.19,23.084 -33.354,3.859 -50.23,16.454 -58.727,27.417 v -3.748 c 0.568,-3.174 7.127,-31.817 59.704,-37.901 z M 72.697,54.819 c 27.63,10.203 43.95,13.912 105.545,21.039 52.74,6.102 59.033,34.906 59.543,37.888 v 3.671 C 229.308,106.473 212.478,93.938 179.219,90.09 119.994,83.237 98.927,77.449 69.209,66.405 Z m -19.875,4.774 8.611,3.149 -39.294,130.518 c -0.645,2.141 0.479,4.415 2.572,5.203 19.769,7.441 74.328,25.204 153.794,29.418 52.999,2.811 58.835,34.556 59.279,37.671 v 17.445 L 9.48,209.39 Z m 39.036,338.358 50.42,-49.268 c 3.613,-3.507 5.644,-8.211 5.719,-13.246 0.075,-5.035 -1.816,-9.798 -5.322,-13.411 l -5.087,-5.24 c -7.239,-7.459 -19.198,-7.637 -26.665,-0.389 l -19.064,18.579 v -20.378 l 61.886,-49.766 17.631,5.685 -19.632,19.598 c -1.661,1.658 -1.663,4.349 -0.005,6.01 0.83,0.831 1.919,1.247 3.008,1.247 1.086,0 2.173,-0.414 3.003,-1.242 l 22.721,-22.682 23.368,7.534 -42.849,42.886 c -1.658,1.661 -1.657,4.352 0.003,6.01 0.83,0.829 1.917,1.244 3.004,1.244 1.088,0 2.177,-0.415 3.007,-1.246 l 45.923,-45.964 20.979,6.764 -142.048,134.427 z m 300.587,-83.356 v 20.381 L 373.374,316.39 c -7.459,-7.24 -19.418,-7.063 -26.659,0.395 l -5.087,5.24 c -3.507,3.613 -5.398,8.376 -5.322,13.411 0.075,5.035 2.106,9.739 5.708,13.236 l 50.432,49.278 v 27.162 l -142.273,-134.436 26.105,-8.411 26.712,26.712 c 0.829,0.83 1.917,1.245 3.005,1.245 1.088,0 2.176,-0.415 3.005,-1.245 1.66,-1.66 1.66,-4.351 0,-6.011 l -23.63,-23.63 45.233,-14.574 z M 246.284,282.998 v -17.436 c 0.469,-3.178 6.484,-34.874 59.44,-37.682 79.464,-4.214 134.024,-21.977 153.794,-29.418 2.093,-0.788 3.217,-3.062 2.572,-5.203 L 422.8,62.762 l 8.607,-3.163 43.341,149.79 z"
   id="path6112"
   style="fill:#cbb26a;fill-opacity:1;stroke:#000000;stroke-width:1.04772;stroke-dasharray:none;stroke-opacity:1" /> <path
   d="m 148.245,119.373 h -33.5 c -2.348,0 -4.25,1.903 -4.25,4.25 0,2.347 1.902,4.25 4.25,4.25 h 33.5 c 2.348,0 4.25,-1.903 4.25,-4.25 0,-2.347 -1.902,-4.25 -4.25,-4.25 z"
   id="path6114"
   style="fill:#cbb26a;fill-opacity:1;stroke:#000000;stroke-width:1.04772;stroke-dasharray:none;stroke-opacity:1" /> </g> </g></g><path
             d="m 73.076684,146.0642 c -0.02382,6.4e-4 -0.04472,-0.0166 -0.04807,-0.0408 -0.0036,-0.0251 0.01332,-0.0482 0.03805,-0.0531 -0.02717,-0.15408 -0.101364,-0.23888 -0.179748,-0.32854 -0.06102,-0.0697 -0.124357,-0.14225 -0.174311,-0.24914 -0.04911,-0.10501 -0.07607,-0.21382 -0.07525,-0.32666 0.0011,-0.1128 0.02969,-0.22908 0.09196,-0.34925 4.18e-4,-7.6e-4 8.35e-4,-0.001 0.0013,-0.001 v 0 c 0.08171,-0.13835 0.196045,-0.23074 0.323328,-0.28257 0.1068,-0.0436 0.222796,-0.0586 0.336494,-0.0481 0.113269,0.0115 0.224262,0.0461 0.321238,0.10323 0.123311,0.0731 0.224679,0.18126 0.280483,0.3179 0.03009,0.074 0.05057,0.15647 0.05308,0.24703 0.0026,0.0901 -0.01295,0.18726 -0.05455,0.29009 -0.0556,0.13781 -0.12916,0.22322 -0.197927,0.30328 -0.06333,0.0737 -0.122265,0.14223 -0.155073,0.24744 0.01859,0.004 0.03321,0.0196 0.03616,0.0398 0.0036,0.0259 -0.01461,0.0499 -0.04055,0.0535 l -0.01609,0.001 c -0.0029,0.0227 -0.0048,0.0473 -0.0055,0.0734 l 0.0052,-7.7e-4 c 0.02591,-0.004 0.04996,0.0148 0.05352,0.0404 0.0036,0.0259 -0.01461,0.0499 -0.04054,0.0535 l -0.01628,0.001 c 2.08e-4,0.004 4.19e-4,0.005 6.26e-4,0.009 v 0 c 0.0014,0.0185 0.0017,0.0362 6.27e-4,0.0531 l 0.0028,-4.1e-4 c 0.02612,-0.004 0.04974,0.0148 0.05308,0.0415 0.0032,0.026 -0.01554,0.0498 -0.04138,0.0531 l -0.0351,0.004 c -0.02509,0.0651 -0.06981,0.11446 -0.122686,0.145 -0.03637,0.0211 -0.0767,0.0333 -0.11725,0.0357 -0.04118,0.001 -0.08277,-0.005 -0.120797,-0.0237 -0.04349,-0.0213 -0.08234,-0.0567 -0.110577,-0.10744 -0.0135,-0.008 -0.02362,-0.0204 -0.02571,-0.0366 -8.34e-4,-0.008 -2.08e-4,-0.0129 0.0014,-0.0185 -0.0082,-0.0242 -0.01424,-0.0509 -0.01813,-0.0801 l -0.0014,2e-4 c -0.02591,0.004 -0.04995,-0.0148 -0.05351,-0.0404 -0.0036,-0.0259 0.01461,-0.0499 0.04054,-0.0535 l 0.01123,-0.001 c 8.34e-4,-0.0255 6.28e-4,-0.0498 -4.17e-4,-0.0727 z m -0.876767,-0.9029 c -0.02445,6.3e-4 -0.04472,-0.0185 -0.04555,-0.0429 -8.34e-4,-0.0244 0.01831,-0.0448 0.04283,-0.0456 l 0.181838,-0.005 c 0.02445,-7.5e-4 0.04472,0.0185 0.04555,0.0429 8.35e-4,0.0244 -0.01831,0.0448 -0.04283,0.0456 z m 2.267683,-0.17996 c 0.02423,-10e-4 0.04599,0.0148 0.0485,0.0395 0.0026,0.0243 -0.01535,0.0461 -0.0395,0.0485 l -0.180987,0.019 c -0.02424,0.001 -0.04599,-0.0148 -0.0485,-0.0396 -0.0026,-0.0242 0.01535,-0.0461 0.03951,-0.0485 z m -0.329598,-0.74133 c 0.0135,-0.0203 0.04097,-0.0258 0.06125,-0.0129 0.02028,0.0129 0.02571,0.0408 0.01225,0.0612 l -0.10116,0.15131 c -0.0135,0.0202 -0.04097,0.0258 -0.06125,0.013 -0.02028,-0.013 -0.02571,-0.0408 -0.01225,-0.0613 z m -0.779164,-0.26586 c 6.27e-4,-0.0244 0.0209,-0.0436 0.04514,-0.0431 0.02445,6.4e-4 0.04369,0.0209 0.04304,0.0452 l -0.0046,0.18183 c -6.26e-4,0.0244 -0.0209,0.0436 -0.04514,0.0431 -0.02445,-6.3e-4 -0.04369,-0.0209 -0.04306,-0.0452 z m -0.91439,0.28153 c -0.01794,-0.0167 -0.01881,-0.0448 -0.0022,-0.0625 0.01665,-0.0185 0.04472,-0.0189 0.0625,-0.001 l 0.133137,0.12416 c 0.01794,0.0166 0.01881,0.0448 0.0022,0.0625 -0.01665,0.0185 -0.04472,0.0189 -0.0625,0.001 z m 0.710611,1.70171 0.38645,-0.0549 c 0.03324,-0.14003 0.105537,-0.22425 0.183928,-0.31518 0.06437,-0.0748 0.132933,-0.15464 0.183077,-0.27882 0.03679,-0.0908 0.05036,-0.17608 0.04827,-0.25477 -0.002,-0.0785 -0.02007,-0.15075 -0.04682,-0.2161 -0.04807,-0.11765 -0.136059,-0.21131 -0.243488,-0.27485 -0.0859,-0.0509 -0.183928,-0.0823 -0.284035,-0.0914 -0.09969,-0.009 -0.201478,0.004 -0.295322,0.0422 -0.109939,0.0449 -0.208794,0.12492 -0.279856,0.24496 -0.05517,0.10705 -0.08068,0.20944 -0.08151,0.30787 -8.35e-4,0.0991 0.0232,0.19499 0.06689,0.28842 0.04452,0.0952 0.103878,0.16294 0.160715,0.22825 0.08862,0.10156 0.172424,0.19749 0.201689,0.37431 z m 0.370773,0.0433 -0.360949,0.0513 c 0.0011,0.023 0.0014,0.0469 0.0011,0.0725 l 0.356351,-0.0505 c 4.19e-4,-0.0258 0.0014,-0.0501 0.0036,-0.0732 z m -0.358023,0.21949 c 0.0026,0.0193 0.0063,0.0367 0.0111,0.0531 l 0.3459,-0.0425 c 0.0022,-0.0185 0.0028,-0.037 0.0011,-0.0573 v 0 -4e-4 l -2.08e-4,-0.004 z m 0.06019,0.14297 c 0.01332,0.0148 0.02821,0.0247 0.04389,0.0324 0.02404,0.0115 0.05057,0.0166 0.0767,0.0148 0.02697,-0.001 0.05372,-0.009 0.07817,-0.024 0.02299,-0.013 0.04369,-0.032 0.06019,-0.0553 z"
             id="path354-3"
             style="fill:#be9e44;fill-opacity:1;stroke:#000000;stroke-width:0.0132292;stroke-dasharray:none;stroke-opacity:1"
             inkscape:label="path354" /></g></g></g></g><style
     type="text/css"
     id="style293">
	.st0{fill:none;stroke:#000000;stroke-width:2;stroke-linecap:round;stroke-linejoin:round;stroke-miterlimit:10;}
</style></svg>
